<?xml version="1.0" encoding="utf-8"?>
<!DOCTYPE svg PUBLIC "-//W3C//DTD SVG 1.0//EN" "http://www.w3.org/TR/2001/REC-SVG-20010904/DTD/svg10.dtd">
<svg version="1.0" xmlns="http://www.w3.org/2000/svg" width="500px" height="500px" viewBox="0 0 500 500" preserveAspectRatio="xMidYMid meet">
   <defs>
      <linearGradient id="lg0" gradientUnits="userSpaceOnUse" x1="49.8%" y1="29.6%" x2="49.8%" y2="54.0%">
         <stop offset="0%" style="stop-color:rgb(168,224,255);"></stop>
         <stop offset="100%" style="stop-color:rgb(70,181,244);"></stop>
      </linearGradient>
   </defs>
 <g fill="#0b3856">
  <path d="M269 348.5 l0 -24.5 3.1 0 c2.2 0 3.2 0.5 3.6 2 0.7 2.4 0.5 2.4 4.5 0 5.5 -3.3 13.7 -2.3 18.6 2.2 1.2 1.2 2.9 4.5 3.8 7.3 1.5 4.7 1.5 5.6 0.1 10.6 -1.1 3.6 -2.8 6.6 -5.2 8.9 -3.3 3.2 -4.1 3.5 -9.5 3.5 -4.7 0 -6.3 -0.4 -8.2 -2.2 -1.4 -1.3 -2.7 -2.3 -3.1 -2.3 -0.4 0 -0.7 4.3 -0.7 9.5 l0 9.5 -3.5 0 -3.5 0 0 -24.5z m23.7 2.3 c3 -3.4 4.3 -6.3 4.3 -9.8 0 -9.6 -9.9 -14.3 -17.7 -8.4 -3.1 2.4 -3.3 2.9 -3.3 8.6 0 5.4 0.4 6.6 2.7 9 3.6 3.7 10.8 4 14 0.6z"/>
  <path d="M122.4 358.3 c-3.2 -0.6 -6.4 -4.5 -7 -8.5 -0.5 -3 -0.1 -4.1 2.4 -6.9 3 -3.4 3.1 -3.4 11.6 -3.4 l8.6 0 0 -3.8 c0 -3.1 -0.5 -4 -3.2 -5.7 -4.4 -2.7 -6 -2.5 -9.8 1 -5.1 4.7 -9.8 3.6 -6.4 -1.5 3.8 -5.8 14.2 -7.4 20.5 -3.2 5.2 3.5 5.9 5.8 5.9 19.5 l0 12.2 -2.9 0 c-1.7 0 -3.1 -0.6 -3.5 -1.5 -0.5 -1.3 -1.1 -1.3 -4.3 0.5 -3.6 1.9 -7 2.3 -11.9 1.3z m13.7 -6.9 c2.8 -2.5 2.6 -8 -0.3 -8.8 -5.9 -1.5 -12.2 0.2 -13.1 3.6 -0.7 2.5 0.7 6.4 2.5 7.2 2.3 1 8.9 -0.2 10.9 -2z"/>
  <path d="M161.5 358 c-3.6 -1.1 -8.8 -5.7 -8.2 -7.3 0.6 -2 3.6 -1.9 6.6 0.2 4.4 3.1 11 3.8 14 1.4 4.5 -3.7 1.4 -7 -8.7 -9.2 -8.6 -1.8 -12.5 -6.5 -10.2 -12.2 1.9 -4.5 6.4 -6.9 13 -6.9 5.9 0 11 2.3 12.9 5.9 0.9 1.7 0.7 2.2 -1 3.2 -1.9 0.9 -2.5 0.8 -3.8 -0.9 -3.8 -4.7 -9.5 -5.5 -13.8 -1.8 l-2.8 2.4 2.3 2.5 c1.4 1.5 3.9 2.7 6.1 3 8.6 1.1 15 6.8 13.7 12.1 -0.3 1.2 -1.9 3.5 -3.5 5 -2.5 2.4 -4.1 3 -8.3 3.2 -2.9 0.2 -6.6 -0.1 -8.3 -0.6z"/>
  <path d="M235.4 357.9 c-3.5 -1 -10.7 -8.3 -10.1 -10.2 0.7 -2.4 5.9 -2 8.1 0.6 2.9 3.3 5.8 4.7 10.1 4.7 8.5 0 13.3 -6.6 8.5 -11.8 -1.1 -1.2 -3.3 -2.5 -4.8 -2.8 -16.6 -3.8 -21.7 -8.3 -19.7 -17.3 1.2 -5.6 9.1 -11.1 15.9 -11.1 6.9 0.1 16.8 7.5 15.2 11.5 -0.8 2.3 -3.2 1.8 -6.7 -1.4 -3.4 -3.2 -6.1 -4 -10.7 -3.3 -4.5 0.6 -7.4 3.7 -7 7.5 0.3 3.6 1.9 4.6 12.3 7.7 9.6 2.8 11.2 3.8 13.1 7.8 3.1 6.7 -0.3 14.7 -7.6 17.6 -4.4 1.7 -11.6 2 -16.6 0.5z"/>
  <path d="M317 358.3 c-3.9 -1.5 -7 -5.7 -7 -9.4 0 -7.1 6.6 -10.7 17.6 -9.6 5.2 0.5 5.4 0.5 5.4 -1.8 0 -3.9 -2.1 -7.3 -5.2 -8.6 -2.4 -1 -3.5 -0.9 -6.4 0.4 -1.9 1 -3.7 2.4 -4 3.2 -0.9 2.2 -5.4 2 -5.4 -0.3 0 -2.3 3.4 -6 6.7 -7.3 3.7 -1.4 10.1 -1.1 13.9 0.7 5.6 2.7 6.8 6.1 7.1 20.2 l0.2 12.2 -2.6 0 c-1.4 0 -3.2 -0.8 -3.8 -1.7 -1.2 -1.7 -1.4 -1.7 -3.4 0.1 -2.1 1.9 -10.2 3.1 -13.1 1.9z m14.2 -7.3 c2.5 -3 2.3 -6.7 -0.3 -8.1 -2.6 -1.3 -10.3 -0.7 -12.4 1.1 -2 1.7 -1.9 5.9 0.2 8.3 2.4 2.6 10 1.8 12.5 -1.3z"/>
  <path d="M359.7 358.2 c-4.1 -1 -9.5 -5.8 -11.2 -9.9 -4.9 -11.7 3.1 -24.3 15.4 -24.3 2.3 0 5.6 0.6 7.5 1.4 3.1 1.3 7.6 5.9 7.6 7.7 0 1.7 -5.7 0.9 -7.4 -1 -3.8 -4.2 -12.5 -3 -15.9 2.2 -1 1.5 -1.7 4.6 -1.7 7.3 0 3.9 0.5 5.1 3.4 8 4.6 4.6 9.6 4.7 14.6 0.4 5.6 -4.7 9.7 -3.6 6.5 1.7 -3.5 5.9 -10.9 8.4 -18.8 6.5z"/>
  <path d="M397.3 358.3 c-1.3 -0.2 -4 -2.2 -6.2 -4.4 -7.3 -7.4 -7.7 -16.8 -1.1 -24.3 3.9 -4.4 7.9 -6 13.9 -5.4 7.7 0.8 14.1 7.2 14.1 14.3 l0 3.5 -12.5 0 -12.5 0 0 2.6 c0 1.5 1.2 3.8 2.9 5.5 3.8 3.8 9 4 13.7 0.4 3.7 -2.9 4.7 -3 6.3 -1.1 0.8 1 0.6 2 -1.1 4.1 -3.6 4.6 -9.8 6.3 -17.5 4.8z m14.7 -21.5 c0 -0.7 -1.1 -2.6 -2.4 -4.3 -2.1 -2.6 -3 -3 -7.6 -3 -4.2 0 -5.5 0.4 -7.1 2.4 -1 1.3 -1.9 3.2 -1.9 4.2 0 1.7 0.9 1.9 9.5 1.9 6.9 0 9.5 -0.3 9.5 -1.2z"/>
  <path d="M95 338 l0 -19.9 -7.2 -0.3 c-7.1 -0.3 -7.3 -0.4 -7.6 -3 l-0.3 -2.8 18.5 0 18.6 0 0 2.4 c0 2.6 -3.2 3.9 -8.7 3.6 -6.8 -0.5 -6.3 -2 -6.3 20 l0 20 -3.5 0 -3.5 0 0 -20z"/>
  <path d="M190 333.5 l0 -24.5 3 0 3 0 0 13.9 c0 9.4 0.4 14.2 1.1 14.7 0.7 0.4 3.9 -2.2 7.8 -6.5 5.6 -6.1 7.1 -7.2 9.9 -7.1 1.7 0 3.2 0.3 3.2 0.8 0 0.4 -2.5 3.3 -5.5 6.5 -5.3 5.6 -6.5 8 -4.6 9.2 1.1 0.6 12.1 16.1 12.1 17 0 0.3 -1.7 0.5 -3.9 0.5 -3.7 0 -4 -0.3 -8.7 -7.5 -2.7 -4.1 -5.2 -7.5 -5.6 -7.5 -1.9 0 -5.9 6.6 -5.8 9.4 0.3 5.2 0.1 5.6 -3 5.6 l-3 0 0 -24.5z"/>
  <path d="M163.7 280.5 c-15.7 -5.4 -26.8 -17.8 -31.2 -35 -2.9 -11.1 -1.4 -22.8 4.5 -34.9 6.2 -12.8 20.6 -23 34.3 -24.3 l6.5 -0.6 1.8 -6.6 c8.4 -31.1 41.1 -50.2 72.2 -42.2 11.2 3 20.5 8.2 28 16 4 4.3 10.2 13.2 12.5 18.2 l1.7 3.6 8.9 0.5 c7.2 0.4 9.8 1 14.1 3.4 8.5 4.6 17 16.1 17 22.9 0 1.4 0.6 2.7 1.3 2.9 18 4.7 26.6 12.2 31.6 27.6 2.7 8.1 2.7 16 0 24 -3.8 11.5 -10.6 19.2 -21.6 24.2 l-6.3 2.8 -84.2 -0.1 -84.3 0 -6.8 -2.4z m177.2 -12 c6.6 -3.7 11.5 -9.2 14.1 -16.2 2.7 -7.3 2.5 -11.7 -0.9 -18.8 -4.5 -9.5 -10.8 -14.1 -23.9 -17.5 l-6.7 -1.7 -0.8 -6.3 c-1.1 -8.5 -5.8 -15.4 -13.2 -19.3 -3.4 -1.7 -5.6 -2 -14.1 -1.9 l-10.1 0.2 -1.3 -3.2 c-7 -18.8 -18.6 -30 -35.9 -35.2 -14.7 -4.3 -31.2 0.7 -44.1 13.4 -8.5 8.5 -12.2 15.9 -14.4 29 l-1.1 6.5 -9.5 0.6 c-11.6 0.7 -17.3 3.1 -24.5 10.4 -8.6 8.6 -12.9 20.8 -10.8 30.9 3.3 15.5 14.1 27 29.3 31.2 3.5 1 22.8 1.2 83.5 1.1 l79 -0.2 5.4 -3z"/>
 </g>
 <g fill="#7bcffd">
  <path fill="url(#lg0)" d="M353 251.5 c0 -2.3 -0.4 -2.5 -4.1 -2.5 -4.4 0 -14.2 -2 -25.4 -5.2 -3.8 -1.1 -9.5 -2.7 -12.5 -3.5 -3 -0.8 -6.4 -2 -7.5 -2.7 -2.9 -1.9 -14.1 -5.6 -16.8 -5.6 -1.3 0 -2.7 -0.4 -3.3 -0.9 -0.5 -0.5 -5.4 -1.7 -10.8 -2.6 -5.5 -0.9 -14.1 -2.5 -19 -3.6 -8.5 -1.9 -19 -3.8 -33.1 -5.9 -3.3 -0.5 -7.8 -1.4 -10 -1.9 -7.5 -2 -23.1 -2.4 -39.6 -1.1 -9 0.7 -17.3 1.7 -18.4 2.3 -1.1 0.5 -3.5 2.5 -5.2 4.3 -2.8 2.7 -3.3 4.1 -3.3 7.9 0 3.8 -0.3 4.5 -2 4.5 -1.7 0 -2 -0.7 -2 -4 0 -9 6.3 -21.8 13.7 -27.9 6.6 -5.5 11.9 -7.4 22.3 -8 l9.5 -0.6 0.7 -5 c0.5 -2.7 1.3 -7 2 -9.4 l1.1 -4.3 5.1 0.7 c2.8 0.3 5.3 1.1 5.7 1.7 0.3 0.5 4.2 1.4 8.5 1.9 18.3 2 37.8 4.9 38.3 5.7 0.3 0.5 4.4 1.2 9 1.6 4.6 0.4 9.2 1.1 10.2 1.6 1 0.6 3.1 1 4.7 1 2.6 0 9.6 1.9 14.7 4 1.1 0.4 5.2 1.6 9 2.5 3.9 0.9 8.6 2.4 10.5 3.3 4.5 2 13.2 5.2 14.2 5.2 0.5 0 0.8 -0.9 0.8 -2 0 -1.5 0.7 -2 2.5 -2 2.5 0 3.1 1.2 3.7 7.4 0.3 2.6 0.8 3 7 4.6 13 3.4 19.4 8 23.9 17.5 2.3 4.7 2.9 7.4 2.9 12.5 0 9.3 -0.6 11 -4.1 11 -2.4 0 -2.9 -0.4 -2.9 -2.5z"/>
 </g>
 <g fill="#68c6fa">
  <path fill="url(#lg0)" d="M342 268.5 c0 -1.9 -0.5 -2.5 -2.1 -2.5 -2 0 -19.5 -4 -32.9 -7.5 -3 -0.8 -9.1 -2.4 -13.5 -3.4 -4.4 -1.1 -11.1 -2.8 -15 -3.9 -15.7 -4.3 -38.4 -8.2 -66 -11.2 -4.9 -0.5 -11.9 -1.4 -15.5 -2 -9.5 -1.4 -24.1 -1.2 -30.4 0.4 -3 0.8 -7.5 2.6 -10.1 4 -2.5 1.4 -5.5 2.6 -6.5 2.6 -1.8 0 -2 0.7 -2 6 0 3.3 -0.4 6 -0.9 6 -0.5 0 -1.8 -1.9 -2.9 -4.3 -3.6 -7.6 -4.4 -12.4 -3.6 -21.5 0.6 -7.8 1 -8.9 3.8 -11.7 4.6 -4.8 6.2 -5.3 18.1 -6 6.1 -0.4 11.5 -1.1 12 -1.5 1.3 -1.1 33.7 0.7 39 2 2.2 0.6 6.7 1.5 10 2 14.1 2.1 24.6 4 33.1 5.9 4.9 1.1 13.5 2.7 19 3.6 5.4 0.9 10.3 2.1 10.9 2.6 0.5 0.5 1.9 0.9 3.2 0.9 2.7 0 13.9 3.7 16.8 5.6 1.1 0.7 4.5 1.9 7.5 2.7 3 0.8 8.7 2.4 12.5 3.5 11.2 3.2 21 5.2 25.4 5.2 3.7 0 4.1 0.2 4.1 2.5 0 1.6 0.6 2.5 1.5 2.5 0.8 0 1.5 0.6 1.5 1.3 0 3 -5.5 11.9 -9.3 15.2 -4.9 4.2 -7.7 4.6 -7.7 1z"/>
 </g>
 <g fill="#98dbfe">
  <path fill="url(#lg0)" d="M322.2 209.4 c-0.7 -0.8 -2.5 -1.4 -4 -1.4 -2.7 0 -9.4 -2.2 -16.2 -5.2 -1.9 -0.9 -6.6 -2.4 -10.5 -3.3 -3.8 -0.9 -7.9 -2.1 -9 -2.5 -7 -2.9 -17.2 -5.1 -23.5 -5.2 -1.9 -0.1 -3.8 -0.6 -4.2 -1.2 -0.5 -0.8 -0.8 -0.7 -0.8 0.2 0 0.6 -0.7 1.2 -1.5 1.2 -0.8 0 -1.5 -0.4 -1.5 -1 0 -0.5 -0.7 -0.7 -1.5 -0.4 -2.1 0.8 -6.7 -0.4 -6 -1.6 0.3 -0.6 0.3 -1 -0.2 -1 -0.4 -0.1 -7.3 -1 -15.3 -2.2 -8 -1.1 -17.5 -2 -21.3 -2 -3.7 0 -6.5 -0.3 -6.3 -0.7 0.3 -0.4 -0.9 -0.5 -2.7 -0.3 -2.8 0.4 -3 0.3 -1.9 -1 1.1 -1.3 0.8 -1.6 -2 -2.1 -1.9 -0.2 -3.6 0 -4 0.7 -0.5 0.6 -0.8 0.1 -0.8 -1.3 0 -4.5 5.3 -13.5 12 -20.1 10.5 -10.4 21.6 -15 36.6 -15 22.8 0 40.6 13.2 49.4 36.6 l1.1 3.1 10.2 -0.1 c9.1 -0.1 10.7 0.2 14.7 2.4 7.8 4.4 15.5 17.2 11.1 18.3 -1.3 0.4 -1.3 0.5 0.2 0.6 1.1 0.1 1.7 0.9 1.7 2.5 0 2.8 -2 3.9 -3.8 2z"/>
 </g>
 <g fill="#56bdf8">
  <path fill="url(#lg0)" d="M170 273.6 c-6.9 -1.9 -11.6 -4.5 -17.1 -9.4 -5.7 -5.1 -7.4 -7.9 -8.4 -13.9 -0.8 -5.3 0.1 -8.3 2.5 -8.3 1.1 0 4 -1.2 6.5 -2.6 7.8 -4.3 13.8 -5.5 27.5 -5.4 6.9 0.1 15.5 0.5 19.1 1 3.6 0.5 9.8 1.2 13.9 1.5 4.1 0.3 7.7 0.8 8 1 0.4 0.3 4.7 0.9 9.6 1.5 14.8 1.6 38.1 6 49.9 9.2 3.9 1.1 10.6 2.8 15 3.9 4.4 1 10.5 2.6 13.5 3.4 16.5 4.3 27.8 6.8 30.6 6.7 1.7 -0.1 4 0.5 5 1.2 1.5 1.2 1.6 1.6 0.5 3 -0.9 1.1 -1 1.6 -0.2 1.6 2.4 0 0.9 2.1 -3.1 4.2 -3.3 1.7 -6.5 2.3 -13.8 2.6 -8.9 0.3 -16.1 -0.6 -37.5 -4.8 -2.2 -0.4 -8.9 -1.5 -15 -2.4 -6 -0.9 -13.2 -2.1 -15.8 -2.6 -2.7 -0.6 -6.7 -1 -9 -1 -2.3 0 -8.7 -0.6 -14.2 -1.4 -23.6 -3.5 -42.2 -4.3 -53.5 -2.6 -10.4 1.7 -12 2.2 -14.1 4.9 l-2.1 2.6 3.6 0.3 c2.3 0.2 3.6 0.8 3.6 1.8 0 0.8 0.9 1.4 2 1.4 1.3 0 2 0.7 2 2 0 2.3 -2.2 2.5 -9 0.6z"/>
 </g>
 <g fill="#43b4f4">
  <path fill="url(#lg0)" d="M174.3 274.3 c-1.3 -0.2 -2.3 -1.1 -2.3 -1.9 0 -0.8 -0.4 -1.4 -1 -1.4 -0.5 0 -1 0.5 -1 1 0 2.2 -4 0.9 -5.4 -1.7 -1.2 -2.3 -1.5 -2.4 -1.6 -0.8 0 1.5 -0.3 1.6 -1.2 0.7 -1 -1 -0.7 -1.7 1 -3.5 1.2 -1.2 3.1 -3.4 4.2 -4.8 2.2 -2.9 3.6 -3.3 19 -5.4 7.9 -1 13.1 -1.1 21 -0.4 5.8 0.5 15.5 1.4 21.7 1.9 6.2 0.5 13.2 1.4 15.5 2 2.4 0.5 6.6 1 9.5 1 2.8 0 7.3 0.4 10 1 2.6 0.5 9.8 1.7 15.8 2.6 6.1 0.9 12.8 2 15 2.4 2.2 0.5 7.8 1.6 12.5 2.5 4.7 0.9 12.7 1.9 17.9 2.3 6.1 0.5 9.6 1.1 9.9 2 0.3 0.9 -15.9 1.2 -79 1.1 -43.6 -0.1 -80.3 -0.4 -81.5 -0.6z"/>
 </g>
</svg>